<svg id="github-icon" xmlns="http://www.w3.org/2000/svg" viewBox="0 0 36.911 36">
  <defs>
    <style>
      .cls-1 {
        fill: #757575;
      }
    </style>
  </defs>
  <path id="Path_26" data-name="Path 26" class="cls-1" d="M18.456,0a18.458,18.458,0,0,0-5.835,35.968c.922.171,1.261-.4,1.261-.888,0-.44-.017-1.894-.025-3.436-5.134,1.116-6.218-2.177-6.218-2.177a4.887,4.887,0,0,0-2.049-2.7c-1.674-1.146.126-1.122.126-1.122a3.879,3.879,0,0,1,2.829,1.9,3.929,3.929,0,0,0,5.371,1.534,3.931,3.931,0,0,1,1.172-2.468c-4.1-.467-8.409-2.049-8.409-9.121a7.143,7.143,0,0,1,1.9-4.954A6.631,6.631,0,0,1,8.76,7.654s1.55-.5,5.077,1.892a17.506,17.506,0,0,1,9.243,0c3.523-2.388,5.07-1.892,5.07-1.892a6.623,6.623,0,0,1,.181,4.884,7.129,7.129,0,0,1,1.9,4.954c0,7.089-4.317,8.649-8.427,9.106a4.412,4.412,0,0,1,1.252,3.418c0,2.469-.021,4.457-.021,5.065,0,.491.332,1.067,1.268.885A18.458,18.458,0,0,0,18.456,0Z" transform="translate(0)"/>
</svg>
